<svg width="144" height="144" viewBox="0 0 144 144" fill="none" xmlns="http://www.w3.org/2000/svg">
<circle cx="72" cy="72" r="72" fill="#FF5F07"/>
<path d="M60.0846 110.304C60.0846 110.304 59.9378 112.607 59.9378 115.074C59.9378 118.189 60.1009 120.136 60.1009 120.136L66.7598 120.143C66.7598 120.143 66.8661 119.905 66.8661 119.544C66.8661 119.195 66.7661 118.948 66.7661 118.948L62.0148 118.947C61.9733 118.618 61.85 117.514 61.8275 115.623L65.5959 115.624C65.5959 115.624 65.684 115.312 65.6823 115C65.6813 114.7 65.5994 114.428 65.5994 114.428H61.8275C61.8464 112.641 61.958 111.796 62.0094 111.498H66.7653C66.7653 111.498 66.867 111.262 66.867 110.9C66.867 110.55 66.7661 110.303 66.7661 110.303L60.0846 110.304ZM78.1955 110.304C78.1955 110.304 78.0353 110.517 78.0317 110.914C78.029 111.241 78.1784 111.612 78.1784 111.612C78.1784 111.612 79.3838 111.509 81.0889 111.483V120.143C81.0889 120.143 81.4661 120.266 82.0116 120.266C82.5563 120.266 82.9344 120.142 82.9344 120.142V111.483C84.6421 111.509 85.8493 111.612 85.8493 111.612C85.8493 111.612 85.9988 111.241 85.9961 110.914C85.9916 110.517 85.8322 110.304 85.8322 110.304H78.1955ZM55.8328 110.301C54.0971 111.553 52.799 113.743 52.2966 114.68C51.6521 113.536 50.3531 111.502 48.6489 110.304C48.6489 110.304 48.2394 110.183 47.7658 110.183C47.2923 110.183 46.8548 110.303 46.8548 110.303C46.8548 110.303 46.6855 111.615 46.6855 114.58C46.6855 117.684 46.8395 120.123 46.8395 120.123C46.8395 120.123 47.1338 120.244 47.5345 120.244C47.9135 120.244 48.224 120.123 48.224 120.123C48.224 120.123 48.0773 116.878 48.0773 114.112C48.0773 113.388 48.0854 112.718 48.1016 112.125C49.1837 112.958 50.9805 114.958 51.6279 117.186L51.6305 117.2L51.6431 117.206C51.6485 117.208 51.788 117.275 52.0824 117.275C52.3768 117.275 52.511 117.208 52.5308 117.191C53.7433 114.147 55.3449 112.386 55.8823 111.853C55.9139 112.602 55.93 113.514 55.93 114.563C55.93 117.629 55.7716 120.123 55.7716 120.123C55.7716 120.123 56.1721 120.244 56.7178 120.244C57.2642 120.244 57.6549 120.123 57.6549 120.123C57.6549 120.123 57.807 117.701 57.807 114.563C57.807 111.489 57.645 110.303 57.645 110.303C57.645 110.303 57.2318 110.183 56.7168 110.183C56.201 110.183 55.8562 110.292 55.8328 110.301ZM74.3272 110.304L74.33 114.472C73.9167 115.002 73.1408 115.359 72.399 115.359C71.803 115.359 71.2619 115.14 70.8352 114.726C69.5739 113.503 71.0179 110.381 71.0323 110.349C70.9306 110.263 70.4797 110.183 70.0268 110.183C69.4893 110.183 69.2238 110.231 69.1067 110.269C69.1067 110.269 67.9211 113.435 68.9114 115.146C69.4786 116.125 70.6597 116.759 71.9209 116.759C72.8049 116.759 73.6538 116.446 74.32 115.875L74.3237 120.144C74.3264 120.145 74.7234 120.266 75.2437 120.266C75.5696 120.266 75.8909 120.22 76.1691 120.144V110.305C76.1691 110.305 75.855 110.183 75.2472 110.183C74.6396 110.183 74.3272 110.304 74.3272 110.304ZM89.6438 119.12V115.367C89.7105 115.301 89.931 115.117 90.427 114.997C90.6089 114.952 90.8673 114.927 91.1374 114.927C91.5325 114.927 91.9061 114.982 92.1888 115.077C93.0225 115.361 93.3411 115.936 93.4609 116.367C93.6516 117.05 93.4734 117.88 93.0296 118.386C92.845 118.595 92.323 118.92 91.9763 119.002C91.3651 119.146 90.9771 119.147 90.526 119.149L90.3145 119.151C90.0976 119.152 89.8725 119.141 89.6438 119.12ZM87.7912 110.304V120.069C87.7912 120.069 88.8553 120.225 90.5558 120.225C91.5604 120.225 92.3149 120.138 92.9323 119.955C93.099 119.906 93.2898 119.83 93.2925 119.83C94.5519 119.32 95.3667 117.913 95.1919 116.557C95.1281 115.812 94.7824 115.122 94.1927 114.561C93.3861 113.792 92.3509 113.632 91.6235 113.632C91.3497 113.632 91.0698 113.654 90.7934 113.697C90.2731 113.781 89.8644 113.96 89.6448 114.075L89.6438 110.304C89.6438 110.304 89.1856 110.183 88.7184 110.183C88.2673 110.183 87.7912 110.304 87.7912 110.304ZM96.1562 110.303V120.142C96.1562 120.142 96.4721 120.265 97.0843 120.265C97.6604 120.265 98.0107 120.143 98.0107 120.143V110.304C98.0107 110.304 97.6973 110.183 97.0843 110.183C96.5225 110.183 96.1562 110.303 96.1562 110.303ZM64.2392 97.7156C64.2392 97.7156 64.2402 97.72 64.2402 97.7173L64.2392 97.7156ZM97.3462 104.709C97.3039 104.351 97.1787 103.154 97.1572 101.232C97.4848 101.227 97.799 101.223 98.0926 101.223C98.9451 101.223 99.5545 101.248 99.9056 101.301C100.825 101.438 101.237 102.222 101.237 102.939C101.237 103.725 100.575 104.534 99.8489 104.636C99.388 104.7 98.5733 104.714 97.9719 104.714C97.7036 104.714 97.4786 104.711 97.3462 104.709ZM97.1562 100.15C97.1752 98.2669 97.2976 97.3283 97.3418 97.0526C97.529 97.0457 97.8774 97.0335 98.2609 97.0335C98.8253 97.0335 99.2691 97.0579 99.5789 97.1041C100.532 97.2454 100.607 98.2791 100.607 98.5923C100.607 99.2361 100.195 99.9889 99.5285 100.081C99.1215 100.139 98.1547 100.151 97.4137 100.151L97.1562 100.15ZM95.4342 95.9353C95.4342 95.9353 95.2685 97.5917 95.2685 100.712C95.2685 103.815 95.4323 105.781 95.4323 105.781H99.7625C101.623 105.781 103.081 104.49 103.081 102.839C103.081 101.524 102.049 100.77 101.567 100.49C101.812 100.247 102.315 99.626 102.315 98.6062C102.315 97.3127 101.345 95.9361 99.551 95.9361L95.4342 95.9353ZM64.6344 95.9344C64.6344 95.9344 64.4742 96.1498 64.4705 96.5485C64.4669 96.8765 64.6182 97.2507 64.6182 97.2507C64.6182 97.2507 65.829 97.146 67.544 97.1215V105.779C67.544 105.779 67.9328 105.901 68.4839 105.901C69.0357 105.901 69.3993 105.779 69.3993 105.779V97.1215C71.1169 97.146 72.3296 97.2507 72.3296 97.2507C72.3296 97.2507 72.48 96.8765 72.4763 96.5485C72.4736 96.1498 72.3125 95.9344 72.3125 95.9344H64.6344ZM76.9379 100.846C76.4959 100.762 76.2312 100.679 76.1034 100.632V97.1617C76.3887 97.1347 76.6679 97.1215 76.9371 97.1215C77.9002 97.1215 78.6439 97.2891 79.1471 97.6205C79.3613 97.7619 79.6603 98.0863 79.771 98.3655C79.8907 98.669 79.9087 99.0424 79.8241 99.4454C79.6845 100.111 79.2605 100.593 78.661 100.772C78.299 100.882 77.9075 100.904 77.6428 100.904C77.3899 100.906 77.1332 100.883 76.9379 100.846ZM75.0717 95.9344L74.2498 95.9981V105.779C74.2498 105.779 74.69 105.898 75.1411 105.898C75.5921 105.898 76.1043 105.78 76.1043 105.78L76.1034 101.91C76.278 101.969 76.7327 102.111 77.3007 102.2C77.587 102.246 77.8714 102.27 78.1478 102.27C79.0462 102.27 79.8105 102.036 80.4173 101.577C80.4533 101.554 81.2708 100.97 81.5598 100.011C82.018 98.4833 81.196 96.7919 79.7268 96.2405C79.0535 95.9876 78.1667 95.8646 77.0171 95.8646C76.1557 95.8654 75.4831 95.9021 75.0717 95.9344ZM43.9353 100.859C43.9353 99.0137 45.3244 96.9576 47.3211 96.9576C49.316 96.9576 50.7059 99.0127 50.7059 100.859C50.7059 102.704 49.316 104.76 47.3211 104.76C45.3253 104.76 43.9353 102.703 43.9353 100.859ZM41.9584 100.859C41.9584 103.696 44.3134 105.918 47.3211 105.918C50.327 105.918 52.6829 103.696 52.6829 100.859C52.6829 98.0218 50.3279 95.8 47.3211 95.8C44.3134 95.8 41.9584 98.0218 41.9584 100.859ZM53.9819 100.859C53.9819 103.696 56.3369 105.918 59.3437 105.918C61.9094 105.918 63.3938 104.167 63.6045 103.873C63.6045 103.873 63.4703 103.592 63.0229 103.259C62.6746 102.997 62.2425 102.869 62.238 102.868C62.1911 103.008 61.2342 104.671 59.3428 104.671C57.708 104.671 55.9579 103.14 55.9579 100.859C55.9579 98.5775 57.708 97.0448 59.3428 97.0448C61.2666 97.0448 62.0777 98.5914 62.1651 98.786C62.1651 98.786 62.6053 98.6482 62.9519 98.3899C63.3993 98.0549 63.5298 97.7889 63.5343 97.7776C63.4191 97.604 61.976 95.8 59.3419 95.8C56.3361 95.8 53.9819 98.0218 53.9819 100.859ZM84.9518 100.859C84.9518 99.0137 86.3417 96.9576 88.3375 96.9576C90.3334 96.9576 91.7225 99.0127 91.7225 100.859C91.7225 102.704 90.3334 104.76 88.3375 104.76C86.3417 104.76 84.9518 102.703 84.9518 100.859ZM82.9749 100.859C82.9749 103.696 85.3309 105.918 88.3375 105.918C91.3443 105.918 93.7003 103.696 93.7003 100.859C93.7003 98.0218 91.3443 95.8 88.3375 95.8C85.3309 95.8 82.9749 98.0218 82.9749 100.859ZM42.1159 69.3072C40.9438 74.4529 38.5546 80.3489 35.1184 84.1033C34.8411 84.4051 35.0815 84.8518 35.5217 84.8518H49.2359C49.677 84.8518 49.9174 84.4042 49.6401 84.1033C46.2039 80.3489 43.8147 74.4529 42.6426 69.3072C42.6057 69.1502 42.4922 69.0734 42.3797 69.0734C42.2654 69.0734 42.151 69.1529 42.1159 69.3072ZM62.1965 69.3072C61.0236 74.4529 58.6352 80.3489 55.1982 84.1033C54.9218 84.4051 55.1604 84.8518 55.6014 84.8518H69.3165C69.7577 84.8518 69.9962 84.4042 69.7208 84.1033C66.2837 80.3489 63.8953 74.4529 62.7232 69.3072C62.6854 69.1502 62.5737 69.0734 62.4612 69.0734C62.3451 69.0734 62.2307 69.1529 62.1965 69.3072ZM82.2764 69.3072C81.1043 74.4529 78.7141 80.3489 75.2779 84.1033C75.0015 84.4051 75.241 84.8518 75.683 84.8518H89.3971C89.8392 84.8518 90.0778 84.4042 89.8013 84.1033C86.3652 80.3489 83.9759 74.4529 82.8038 69.3072C82.7661 69.1502 82.6544 69.0734 82.541 69.0734C82.4258 69.0734 82.3105 69.1529 82.2764 69.3072ZM102.356 69.3072C101.185 74.4529 98.7956 80.3489 95.3585 84.1033C95.0821 84.4051 95.3225 84.8518 95.7636 84.8518H109.478C109.919 84.8518 110.158 84.4042 109.882 84.1033C106.445 80.3489 104.055 74.4529 102.884 69.3072C102.846 69.1502 102.733 69.0734 102.621 69.0734C102.506 69.0734 102.391 69.1529 102.356 69.3072ZM58.9557 43.8821C57.5171 50.202 54.5833 57.4413 50.3629 62.0514C50.0236 62.4221 50.3179 62.9725 50.8599 62.9725H67.6996C68.2416 62.9725 68.536 62.4221 68.1966 62.0514C63.9764 57.4413 61.0425 50.202 59.6039 43.8821C59.5589 43.6911 59.4202 43.5978 59.2807 43.5978C59.1403 43.5978 58.998 43.6946 58.9557 43.8821ZM85.3965 43.8821C83.9571 50.202 81.0241 57.4413 76.8029 62.0514C76.4635 62.4221 76.7588 62.9725 77.2998 62.9725H94.1405C94.6824 62.9725 94.976 62.4221 94.6366 62.0514C90.4162 57.4413 87.4815 50.202 86.0438 43.8821C85.9988 43.6911 85.8583 43.5978 85.7206 43.5978C85.5793 43.5978 85.4388 43.6946 85.3965 43.8821ZM72.2369 23.2329C71.0648 28.3786 68.6746 34.2737 65.2394 38.0289C64.9612 38.3316 65.2025 38.7782 65.6427 38.7782H79.3569C79.798 38.7782 80.0366 38.3308 79.7601 38.0289C76.3239 34.2737 73.9347 28.3786 72.7617 23.2329C72.7248 23.0759 72.6132 23 72.4998 23C72.3854 23 72.2711 23.0794 72.2369 23.2329Z" fill="white"/>
</svg>
